<svg width="189" height="26" viewBox="0 0 189 26" fill="none" xmlns="http://www.w3.org/2000/svg">
  <path d="M178.112 13.5119L174.591 7.82736C174.51 7.67533 174.399 7.54144 174.265 7.43395C174.13 7.32646 173.975 7.24765 173.809 7.20236C173.643 7.15708 173.469 7.1463 173.299 7.17067C173.129 7.19504 172.965 7.25405 172.818 7.34406C172.671 7.43408 172.545 7.55319 172.446 7.69406C172.347 7.83493 172.278 7.99456 172.243 8.16313C172.208 8.3317 172.208 8.50562 172.243 8.67418C172.278 8.84274 172.347 9.00237 172.446 9.14322L176.951 16.4015C177.05 16.6234 177.21 16.8121 177.413 16.9448C177.616 17.0774 177.854 17.1483 178.096 17.1489C178.339 17.1528 178.578 17.085 178.783 16.9539C178.988 16.8229 179.15 16.6344 179.249 16.4121L187.934 2.60864C188.088 2.32676 188.129 1.99633 188.048 1.68522C187.967 1.37412 187.769 1.10596 187.496 0.935842C187.224 0.765721 186.896 0.706551 186.581 0.770486C186.266 0.834421 185.987 1.01661 185.802 1.27962L178.112 13.5119Z" fill="white"></path>
  <path class="logo-dot" d="M23.0362 0.769057C22.7693 0.769586 22.5087 0.849328 22.2872 0.998174C22.0658 1.14702 21.8935 1.35827 21.7922 1.60514C21.6909 1.85201 21.6653 2.12339 21.7184 2.38488C21.7716 2.64637 21.9011 2.88619 22.0907 3.07394C22.2803 3.26169 22.5214 3.38893 22.7834 3.43951C23.0454 3.49009 23.3165 3.46175 23.5624 3.35807C23.8083 3.2544 24.0178 3.08005 24.1645 2.85715C24.3112 2.63424 24.3883 2.3728 24.3863 2.10597C24.3842 1.74976 24.2408 1.40893 23.9877 1.15829C23.7346 0.907641 23.3924 0.767657 23.0362 0.769057Z" fill="white"></path>
  <path class="logo-dot" d="M23.0362 4.60615C22.7698 4.60667 22.5096 4.68614 22.2883 4.83452C22.0671 4.98289 21.8948 5.19352 21.7932 5.43977C21.6916 5.68603 21.6653 5.95688 21.7176 6.21808C21.7699 6.47929 21.8984 6.71913 22.087 6.90731C22.2755 7.09549 22.5156 7.22356 22.7769 7.27534C23.0383 7.32712 23.309 7.30028 23.5551 7.19822C23.8012 7.09616 24.0114 6.92345 24.1594 6.70192C24.3073 6.4804 24.3863 6.21999 24.3863 5.9536C24.3866 5.77633 24.3519 5.60074 24.2842 5.43693C24.2164 5.27313 24.117 5.12433 23.9915 4.9991C23.866 4.87388 23.717 4.77469 23.5531 4.70726C23.3891 4.63982 23.2135 4.60546 23.0362 4.60615Z" fill="white"></path>
  <path d="M127.454 0.761153H127.133C126.798 0.761153 126.478 0.893966 126.241 1.13037C126.005 1.36678 125.872 1.68742 125.872 2.02175C125.872 2.35608 126.005 2.67672 126.241 2.91313C126.478 3.14954 126.798 3.28235 127.133 3.28235H127.454C128.92 3.28235 130.325 3.86462 131.362 4.90106C132.398 5.9375 132.98 7.34322 132.98 8.80898C132.98 10.2747 132.398 11.6804 131.362 12.7169C130.325 13.7533 128.92 14.3356 127.454 14.3356H120.827V5.81144C120.827 5.6458 120.795 5.48172 120.732 5.32862C120.669 5.17552 120.576 5.03641 120.459 4.91929C120.342 4.80216 120.202 4.70932 120.049 4.64609C119.896 4.58286 119.732 4.55049 119.566 4.55084C119.395 4.55315 119.226 4.58978 119.07 4.65859C118.913 4.72739 118.772 4.82695 118.654 4.95138C118.536 5.0758 118.445 5.22256 118.385 5.38295C118.325 5.54335 118.298 5.71411 118.306 5.88513V23.6467C118.316 23.981 118.458 24.2977 118.701 24.5272C118.944 24.7567 119.269 24.8802 119.603 24.8704C119.938 24.8606 120.254 24.7185 120.484 24.4751C120.713 24.2318 120.837 23.9073 120.827 23.573V16.8436H127.454C129.587 16.8436 131.634 15.996 133.143 14.4873C134.651 12.9785 135.499 10.9322 135.499 8.79845C135.499 6.66473 134.651 4.61841 133.143 3.10964C131.634 1.60087 129.587 0.753258 127.454 0.753258V0.761153Z" fill="white"></path>

  <path d="M1.21191 24.7204C1.05271 24.7204 0.895075 24.689 0.748027 24.628C0.60098 24.567 0.467408 24.4776 0.354959 24.3649C0.242511 24.2522 0.153394 24.1185 0.0927105 23.9713C0.0320274 23.8241 0.000969842 23.6664 0.00131593 23.5072V2.19022C-0.00632394 2.02632 0.0193617 1.86257 0.0768193 1.70888C0.134277 1.55519 0.222312 1.41475 0.335601 1.29606C0.448889 1.17737 0.585076 1.08289 0.735924 1.01834C0.886773 0.953788 1.04915 0.920506 1.21323 0.920506C1.37731 0.920506 1.53968 0.953788 1.69053 1.01834C1.84138 1.08289 1.97756 1.17737 2.09085 1.29606C2.20414 1.41475 2.29218 1.55519 2.34963 1.70888C2.40709 1.86257 2.43278 2.02632 2.42514 2.19022V20.6228L11.2783 11.9381C11.5049 11.7169 11.809 11.5931 12.1257 11.5931C12.4424 11.5931 12.7465 11.7169 12.9731 11.9381L21.8262 20.6228V9.84592C21.8186 9.68201 21.8443 9.51827 21.9017 9.36458C21.9592 9.21089 22.0472 9.07045 22.1605 8.95176C22.2738 8.83306 22.41 8.73858 22.5608 8.67403C22.7117 8.60948 22.8741 8.5762 23.0381 8.5762C23.2022 8.5762 23.3646 8.60948 23.5154 8.67403C23.6663 8.73858 23.8025 8.83306 23.9158 8.95176C24.0291 9.07045 24.1171 9.21089 24.1745 9.36458C24.232 9.51827 24.2577 9.68201 24.2501 9.84592V23.5072C24.2496 23.7457 24.1788 23.9788 24.0466 24.1773C23.9144 24.3758 23.7267 24.5309 23.5068 24.6233C23.2869 24.7157 23.0447 24.7413 22.8104 24.6967C22.5761 24.6522 22.3601 24.5396 22.1894 24.3731L12.1257 14.5093L2.06196 24.3731C1.83507 24.5958 1.52983 24.7205 1.21191 24.7204Z" fill="white"></path>

  <path d="M73.2338 25.002C69.9295 24.989 66.7519 23.7296 64.3359 21.4755C64.2118 21.3545 64.1128 21.2103 64.0444 21.0511C63.9761 20.8918 63.9398 20.7207 63.9376 20.5474C63.9354 20.3742 63.9674 20.2022 64.0316 20.0413C64.0959 19.8803 64.1912 19.7337 64.3122 19.6096C64.4332 19.4855 64.5774 19.3865 64.7366 19.3182C64.8958 19.2498 65.067 19.2135 65.2402 19.2113C65.4135 19.2091 65.5855 19.2411 65.7464 19.3053C65.9073 19.3696 66.054 19.4649 66.1781 19.5859C67.6492 21.0123 71.6231 23.3335 76.1313 21.9176C78.3867 21.2097 79.1499 19.5306 79.113 18.1937C79.0736 16.7147 78.0603 14.8883 75.3655 14.2014C75.0418 14.1198 74.5759 14.033 74.0496 13.9382C71.3915 13.4356 66.9624 12.5881 65.3175 9.60903C64.678 8.45107 64.4306 6.34569 65.2438 4.34557C66.3571 1.57963 68.8756 0.108493 72.7179 0.000592614C73.0669 -0.00917907 73.4055 0.120085 73.6592 0.359947C73.9129 0.59981 74.0609 0.930623 74.0707 1.27961C74.0804 1.6286 73.9512 1.96718 73.7113 2.22086C73.4714 2.47454 73.1406 2.62255 72.7916 2.63232C70.052 2.70864 68.3756 3.51658 67.6677 5.26405C67.1597 6.51412 67.1913 7.5747 67.615 8.35106C68.6467 10.2459 72.3258 10.9407 74.5233 11.3539C75.1023 11.4644 75.5997 11.5565 76.0023 11.6591C79.3999 12.5224 81.65 15.062 81.7342 18.1279C81.8132 21.0228 79.9184 23.4914 76.9077 24.4441C75.7187 24.8165 74.4797 25.0047 73.2338 25.002Z" fill="white"></path>
  <path d="M52.5103 12.8355C52.5096 12.5023 52.3767 12.183 52.1409 11.9477C51.9051 11.7123 51.5855 11.5802 51.2523 11.5802H39.4437V3.37444H53.0945C53.2647 3.38222 53.4348 3.35542 53.5943 3.29564C53.7539 3.23587 53.8997 3.14437 54.0229 3.02667C54.1461 2.90897 54.2442 2.76751 54.3112 2.61084C54.3782 2.45417 54.4127 2.28555 54.4127 2.11516C54.4127 1.94477 54.3782 1.77614 54.3112 1.61948C54.2442 1.46281 54.1461 1.32135 54.0229 1.20365C53.8997 1.08595 53.7539 0.994446 53.5943 0.934672C53.4348 0.874898 53.2647 0.848093 53.0945 0.855877H38.1805C37.848 0.855865 37.529 0.987232 37.2928 1.22137C37.0567 1.4555 36.9227 1.77344 36.9199 2.10595V19.3727C36.9348 19.6974 37.0742 20.0039 37.3092 20.2285C37.5442 20.453 37.8568 20.5783 38.1818 20.5783C38.5069 20.5783 38.8194 20.453 39.0545 20.2285C39.2895 20.0039 39.4289 19.6974 39.4437 19.3727V14.0935H51.2523C51.5859 14.0935 51.9059 13.9609 52.1418 13.725C52.3777 13.4891 52.5103 13.1691 52.5103 12.8355Z" fill="white"></path>
  <path d="M53.0932 22.0176H45.7928C45.6226 22.0098 45.4526 22.0366 45.293 22.0964C45.1334 22.1562 44.9876 22.2477 44.8644 22.3654C44.7412 22.4831 44.6432 22.6246 44.5762 22.7812C44.5092 22.9379 44.4746 23.1065 44.4746 23.2769C44.4746 23.4473 44.5092 23.6159 44.5762 23.7726C44.6432 23.9293 44.7412 24.0707 44.8644 24.1884C44.9876 24.3061 45.1334 24.3976 45.293 24.4574C45.4526 24.5172 45.6226 24.544 45.7928 24.5362H53.0985C53.2687 24.544 53.4387 24.5172 53.5983 24.4574C53.7578 24.3976 53.9036 24.3061 54.0268 24.1884C54.15 24.0707 54.2481 23.9293 54.3151 23.7726C54.3821 23.6159 54.4166 23.4473 54.4166 23.2769C54.4166 23.1065 54.3821 22.9379 54.3151 22.7812C54.2481 22.6246 54.15 22.4831 54.0268 22.3654C53.9036 22.2477 53.7578 22.1562 53.5983 22.0964C53.4387 22.0366 53.2687 22.0098 53.0985 22.0176H53.0932Z" fill="white"></path>

  <path class="logo-dot" d="M36.8457 23.2782C36.8462 23.5446 36.9257 23.8048 37.0741 24.0261C37.2224 24.2473 37.4331 24.4196 37.6793 24.5212C37.9256 24.6228 38.1964 24.6491 38.4576 24.5968C38.7188 24.5445 38.9587 24.416 39.1469 24.2274C39.335 24.0389 39.4631 23.7988 39.5149 23.5375C39.5667 23.2762 39.5398 23.0054 39.4378 22.7593C39.3357 22.5133 39.163 22.303 38.9415 22.155C38.7199 22.0071 38.4595 21.9281 38.1931 21.9281C38.016 21.9281 37.8406 21.9631 37.6769 22.031C37.5132 22.0988 37.3646 22.1983 37.2394 22.3237C37.1143 22.4491 37.0151 22.598 36.9475 22.7618C36.88 22.9255 36.8454 23.101 36.8457 23.2782Z" fill="white"></path>
  <path class="logo-dot" d="M40.6719 23.2782C40.6724 23.5446 40.7519 23.8048 40.9002 24.0261C41.0486 24.2473 41.2592 24.4196 41.5055 24.5212C41.7518 24.6228 42.0226 24.6491 42.2838 24.5968C42.545 24.5445 42.7849 24.416 42.973 24.2274C43.1612 24.0389 43.2893 23.7988 43.3411 23.5375C43.3928 23.2762 43.366 23.0054 43.2639 22.7593C43.1619 22.5133 42.9892 22.303 42.7676 22.155C42.5461 22.0071 42.2857 21.9281 42.0193 21.9281C41.8422 21.9281 41.6667 21.9631 41.5031 22.031C41.3394 22.0988 41.1908 22.1983 41.0656 22.3237C40.9404 22.4491 40.8413 22.598 40.7737 22.7618C40.7061 22.9255 40.6715 23.101 40.6719 23.2782Z" fill="white"></path>
  <path class="logo-dot" d="M75.2687 1.31645C75.1521 1.55601 75.1091 1.82476 75.1452 2.08873C75.1813 2.35271 75.2949 2.60005 75.4715 2.79951C75.6481 2.99897 75.8799 3.14159 76.1376 3.20934C76.3953 3.27709 76.6673 3.26693 76.9192 3.18014C77.1711 3.09336 77.3916 2.93384 77.5528 2.72176C77.7141 2.50968 77.8089 2.25455 77.8252 1.98861C77.8415 1.72268 77.7786 1.45789 77.6444 1.2277C77.5103 0.997512 77.3109 0.812262 77.0715 0.695364C76.9123 0.617667 76.7394 0.572099 76.5627 0.561266C76.3859 0.550433 76.2088 0.574548 76.0413 0.632231C75.8739 0.689914 75.7195 0.780034 75.5869 0.897438C75.4544 1.01484 75.3462 1.15723 75.2687 1.31645Z" fill="white"></path>
  <path class="logo-dot" d="M78.6487 3.06653C78.5316 3.30593 78.4882 3.57466 78.5238 3.83874C78.5595 4.10283 78.6727 4.35041 78.8491 4.55017C79.0254 4.74994 79.2571 4.89293 79.5147 4.96106C79.7723 5.02919 80.0444 5.01939 80.2964 4.93292C80.5485 4.84645 80.7692 4.68717 80.9308 4.47524C81.0923 4.26331 81.1874 4.00824 81.204 3.74227C81.2206 3.47631 81.1579 3.2114 81.024 2.98103C80.89 2.75067 80.6908 2.5652 80.4514 2.44808C80.1302 2.29169 79.7602 2.26897 79.4223 2.38489C79.0844 2.50081 78.8062 2.74592 78.6487 3.06653Z" fill="white"></path>
  <path d="M106.73 0.716438H90.6766C90.3423 0.716438 90.0216 0.849251 89.7852 1.08566C89.5488 1.32207 89.416 1.6427 89.416 1.97704C89.416 2.31137 89.5488 2.632 89.7852 2.86841C90.0216 3.10482 90.3423 3.23763 90.6766 3.23763H97.6796V15.8094C97.672 15.9733 97.6977 16.137 97.7551 16.2907C97.8126 16.4444 97.9006 16.5849 98.0139 16.7036C98.1272 16.8222 98.2634 16.9167 98.4142 16.9813C98.5651 17.0458 98.7275 17.0791 98.8916 17.0791C99.0556 17.0791 99.218 17.0458 99.3688 16.9813C99.5197 16.9167 99.6559 16.8222 99.7692 16.7036C99.8825 16.5849 99.9705 16.4444 100.028 16.2907C100.085 16.137 100.111 15.9733 100.103 15.8094V3.23763H106.73C107.064 3.23763 107.385 3.10482 107.622 2.86841C107.858 2.632 107.991 2.31137 107.991 1.97704C107.991 1.6427 107.858 1.32207 107.622 1.08566C107.385 0.849251 107.064 0.716438 106.73 0.716438Z" fill="white"></path>
  <path class="logo-dot" d="M98.9315 18.299C98.6647 18.2974 98.4034 18.3751 98.1808 18.5222C97.9582 18.6693 97.7842 18.8792 97.681 19.1253C97.5778 19.3714 97.55 19.6425 97.6011 19.9044C97.6522 20.1663 97.7799 20.4072 97.968 20.5964C98.1562 20.7856 98.3962 20.9147 98.6578 20.9674C98.9194 21.02 99.1907 20.9938 99.4374 20.892C99.6841 20.7903 99.895 20.6176 100.043 20.3958C100.192 20.1741 100.271 19.9133 100.271 19.6464C100.27 19.2906 100.129 18.9495 99.8784 18.6972C99.6276 18.4449 99.2873 18.3018 98.9315 18.299Z" fill="white"></path>
  <path class="logo-dot" d="M98.9315 22.1387C98.6646 22.1371 98.4032 22.2149 98.1805 22.3621C97.9578 22.5093 97.7839 22.7194 97.6808 22.9656C97.5776 23.2118 97.55 23.4831 97.6013 23.7451C97.6526 24.007 97.7806 24.2479 97.969 24.437C98.1574 24.6261 98.3977 24.755 98.6594 24.8074C98.9212 24.8597 99.1926 24.8331 99.4392 24.731C99.6859 24.6288 99.8966 24.4557 100.045 24.2336C100.193 24.0115 100.272 23.7504 100.271 23.4835C100.27 23.1279 100.129 22.7871 99.8783 22.5352C99.6274 22.2833 99.2871 22.1407 98.9315 22.1387Z" fill="white"></path>
  <path class="logo-dot" d="M118.219 2.03494C118.219 2.30132 118.299 2.56158 118.447 2.78282C118.595 3.00406 118.806 3.17635 119.052 3.27793C119.299 3.37952 119.569 3.40582 119.831 3.35354C120.092 3.30125 120.332 3.17271 120.52 2.98416C120.708 2.79561 120.836 2.55552 120.888 2.29421C120.94 2.0329 120.913 1.76211 120.811 1.51605C120.709 1.26999 120.536 1.05971 120.315 0.911764C120.093 0.763821 119.833 0.684861 119.566 0.68486C119.389 0.68486 119.214 0.7198 119.05 0.78768C118.886 0.855559 118.738 0.955047 118.612 1.08045C118.487 1.20585 118.388 1.3547 118.321 1.51848C118.253 1.68227 118.218 1.85777 118.219 2.03494Z" fill="white"></path>
  <path class="logo-dot" d="M122.055 2.03494C122.055 2.30132 122.135 2.56158 122.283 2.78282C122.431 3.00406 122.642 3.17635 122.888 3.27793C123.135 3.37952 123.405 3.40582 123.667 3.35354C123.928 3.30125 124.168 3.17271 124.356 2.98416C124.544 2.79561 124.672 2.55552 124.724 2.29421C124.776 2.0329 124.749 1.76211 124.647 1.51605C124.545 1.26999 124.372 1.05971 124.15 0.911764C123.929 0.763821 123.669 0.684861 123.402 0.68486C123.225 0.68486 123.05 0.7198 122.886 0.78768C122.722 0.855559 122.574 0.955047 122.448 1.08045C122.323 1.20585 122.224 1.3547 122.157 1.51848C122.089 1.68227 122.054 1.85777 122.055 2.03494Z" fill="white"></path>
  <path class="logo-dot" d="M143.731 21.9887C143.487 21.8817 143.216 21.8494 142.954 21.8959C142.692 21.9424 142.449 22.0657 142.257 22.2501C142.064 22.4345 141.931 22.6718 141.874 22.932C141.816 23.1922 141.837 23.4636 141.934 23.7118C142.03 23.9601 142.199 24.1741 142.417 24.3268C142.635 24.4795 142.894 24.5641 143.16 24.5698C143.427 24.5755 143.689 24.5021 143.914 24.3588C144.138 24.2156 144.315 24.009 144.423 23.7651C144.494 23.6031 144.533 23.4285 144.537 23.2514C144.541 23.0743 144.51 22.8981 144.446 22.7331C144.381 22.568 144.285 22.4173 144.162 22.2895C144.04 22.1618 143.893 22.0595 143.731 21.9887Z" fill="white"></path>
  <path class="logo-dot" d="M145.273 18.478C145.029 18.3729 144.759 18.3423 144.498 18.39C144.236 18.4378 143.995 18.5618 143.804 18.7464C143.613 18.9311 143.48 19.1681 143.424 19.4277C143.367 19.6873 143.388 19.9579 143.485 20.2054C143.581 20.453 143.749 20.6664 143.967 20.8189C144.184 20.9715 144.442 21.0562 144.708 21.0626C144.973 21.0689 145.235 20.9966 145.46 20.8547C145.684 20.7127 145.862 20.5076 145.97 20.2649C146.044 20.102 146.083 19.9262 146.088 19.7477C146.092 19.5692 146.061 19.3916 145.996 19.2252C145.931 19.0589 145.834 18.9071 145.71 18.7788C145.586 18.6506 145.437 18.5483 145.273 18.478Z" fill="white"></path>
  <path class="logo-dot" d="M168.817 0.890101C168.591 1.03169 168.413 1.23702 168.304 1.48014C168.194 1.72326 168.16 1.99326 168.204 2.25599C168.249 2.51873 168.37 2.76241 168.553 2.95622C168.736 3.15004 168.972 3.2853 169.232 3.34489C169.491 3.40448 169.763 3.38574 170.012 3.29102C170.261 3.19631 170.476 3.02988 170.631 2.81278C170.785 2.59568 170.872 2.33764 170.88 2.0713C170.888 1.80496 170.816 1.54227 170.675 1.31644C170.581 1.1664 170.458 1.03634 170.314 0.933702C170.17 0.831064 170.007 0.757856 169.834 0.718263C169.662 0.678669 169.483 0.673466 169.309 0.702951C169.134 0.732436 168.967 0.796031 168.817 0.890101Z" fill="white"></path>
  <path class="logo-dot" d="M170.835 4.15344C170.609 4.29402 170.43 4.49847 170.32 4.74098C170.21 4.98348 170.174 5.25316 170.217 5.51596C170.26 5.77876 170.38 6.0229 170.562 6.21753C170.744 6.41217 170.979 6.54858 171.238 6.60953C171.498 6.67049 171.769 6.65326 172.018 6.56001C172.268 6.46677 172.484 6.3017 172.64 6.08564C172.796 5.86958 172.884 5.61223 172.893 5.34609C172.903 5.07995 172.833 4.81695 172.693 4.59031C172.6 4.43941 172.478 4.30836 172.334 4.2047C172.191 4.10103 172.028 4.02677 171.855 3.98619C171.682 3.9456 171.504 3.93948 171.329 3.96819C171.154 3.99689 170.986 4.05984 170.835 4.15344Z" fill="white"></path>
  <path class="logo-dot" d="M178.144 18.299C177.877 18.2979 177.616 18.3761 177.394 18.5235C177.171 18.6709 176.998 18.881 176.895 19.1271C176.792 19.3732 176.765 19.6443 176.816 19.906C176.868 20.1678 176.996 20.4084 177.184 20.5973C177.372 20.7863 177.612 20.9151 177.874 20.9676C178.135 21.02 178.406 20.9936 178.653 20.8918C178.899 20.79 179.11 20.6173 179.258 20.3956C179.407 20.1739 179.486 19.9131 179.486 19.6464C179.485 19.2902 179.344 18.9486 179.092 18.6962C178.841 18.4438 178.5 18.3011 178.144 18.299Z" fill="white"></path>
  <path class="logo-dot" d="M178.144 22.1387C177.877 22.1377 177.616 22.2159 177.393 22.3634C177.171 22.511 176.998 22.7212 176.895 22.9675C176.792 23.2137 176.765 23.485 176.816 23.7468C176.868 24.0086 176.996 24.2491 177.185 24.438C177.373 24.6269 177.614 24.7555 177.875 24.8076C178.137 24.8598 178.408 24.833 178.655 24.7308C178.901 24.6285 179.112 24.4554 179.26 24.2334C179.408 24.0113 179.486 23.7504 179.486 23.4835C179.485 23.1275 179.344 22.7863 179.092 22.5343C178.841 22.2823 178.5 22.1401 178.144 22.1387Z" fill="white"></path>
  <path d="M163.335 22.7624L153.805 1.42439C153.707 1.19989 153.543 1.0099 153.336 0.878658C153.129 0.747414 152.887 0.680865 152.642 0.687502C152.4 0.688448 152.162 0.759503 151.959 0.89211C151.756 1.02472 151.596 1.21322 151.497 1.43491L145.134 15.7752C145.052 15.9671 145.018 16.1763 145.036 16.3842C145.054 16.5922 145.123 16.7925 145.236 16.9676C145.35 17.1427 145.505 17.287 145.688 17.388C145.87 17.4889 146.075 17.5433 146.284 17.5463H158.369L161.035 23.7914C161.099 23.948 161.193 24.09 161.313 24.2092C161.433 24.3284 161.576 24.4222 161.733 24.4851C161.89 24.548 162.058 24.5787 162.227 24.5754C162.396 24.5721 162.562 24.5348 162.717 24.4657C162.871 24.3967 163.01 24.2973 163.125 24.1735C163.24 24.0497 163.329 23.9041 163.387 23.7451C163.444 23.5862 163.47 23.4173 163.461 23.2485C163.452 23.0797 163.409 22.9144 163.335 22.7624ZM148.1 15.0252L152.674 5.02459L157.248 15.0252H148.1Z" fill="white"></path>
</svg>